<svg width="14" height="14" viewBox="0 0 14 14" fill="none" xmlns="http://www.w3.org/2000/svg">
<g clip-path="url(#clip0_11714_34892)">
<rect width="14" height="14" rx="2" fill="#95665C"/>
<path d="M6.97257 5.66971C6.85072 5.54786 6.53572 5.44675 6.18701 5.41823C5.79164 5.38582 5.45331 5.45193 5.25757 5.59971C4.7222 6.00286 4.14535 7.5623 4.41368 8.18323C4.46035 8.28952 4.55109 8.37767 4.68461 8.44378C4.80646 8.50341 4.95942 8.54489 5.1409 8.56693C5.46109 8.60452 5.85257 8.57471 6.16498 8.48915C6.60572 8.3673 6.81701 8.20008 6.79238 7.99138C6.75479 7.6686 6.31794 7.64138 5.95109 7.64008C5.73849 7.63489 5.77479 7.40934 5.96146 7.36527C6.42812 7.26934 6.67183 7.1086 6.68609 6.88693C6.69646 6.73267 6.56294 6.63545 6.27905 6.58878C6.0509 6.5486 6.13127 6.32823 6.33998 6.28804C6.45275 6.26471 6.58368 6.22971 6.72109 6.17527C6.86368 6.11693 7.01794 6.00156 7.04516 5.87193C7.06072 5.79934 7.03609 5.73193 6.97257 5.66971Z" fill="black"/>
<path d="M9.53897 5.66971C9.41712 5.54786 9.10212 5.44675 8.75342 5.41823C8.35805 5.38582 8.01971 5.45193 7.82397 5.59971C7.2886 6.00286 6.71175 7.5623 6.98009 8.18323C7.02675 8.28952 7.11749 8.37767 7.25101 8.44378C7.37286 8.50341 7.52583 8.54489 7.70731 8.56693C8.02749 8.60452 8.41897 8.57471 8.73138 8.48915C9.17212 8.3673 9.38342 8.20008 9.35879 7.99138C9.32249 7.67767 8.90638 7.64397 8.54731 7.64008C8.37101 7.64008 8.28027 7.44823 8.56675 7.35619C9.00879 7.25897 9.23953 7.10212 9.25379 6.88564C9.26416 6.7236 9.11638 6.62378 8.80268 6.57971C8.7962 6.57841 8.78971 6.57841 8.78323 6.57712C8.60694 6.53823 8.74046 6.32434 8.95953 6.27508C9.06064 6.25304 9.17212 6.22064 9.28879 6.17267C9.43138 6.11434 9.58564 5.99897 9.61286 5.86934C9.62712 5.79934 9.60249 5.73193 9.53897 5.66971Z" fill="black"/>
<path d="M11.8969 7.42781C11.867 7.3993 11.8385 7.37207 11.81 7.34745C11.7296 7.27356 11.7257 7.19319 11.7283 7.14133C11.7309 7.06226 11.8139 6.96115 11.8852 6.89374C11.9746 6.81337 12.077 6.71744 12.1769 6.60726C12.5411 6.20411 12.6954 5.69726 12.5152 5.50152C12.3363 5.30707 11.9811 5.41726 11.46 5.82819C11.3161 5.94615 11.0815 5.92411 11.0776 5.79448C11.0776 5.69726 11.0594 5.56244 10.9765 5.48078C10.9259 5.43022 10.8546 5.4043 10.7678 5.4043C10.7665 5.4043 10.7652 5.4043 10.7639 5.4043C10.3931 5.40689 10.1404 5.66226 9.82926 6.34282C9.5 7.06485 9.5 7.5743 9.5 7.88022C9.5 8.17319 9.55444 8.37541 9.66204 8.48041C9.72167 8.53874 9.80074 8.56856 9.89537 8.56596C10.0056 8.56337 10.1754 8.50763 10.3711 8.26782C10.4502 8.16411 10.5889 8.08115 10.6641 8.07207C10.7393 8.063 10.9091 8.11226 11.1035 8.22115C11.4211 8.41819 11.7063 8.53615 11.9267 8.56337C12.0524 8.57893 12.1587 8.5517 12.2339 8.48559C12.2974 8.42856 12.335 8.34559 12.335 8.25874C12.3311 7.93078 12.0576 7.58207 11.8969 7.42781Z" fill="black"/>
<path d="M4.28173 6.24692C4.2234 6.01229 4.09247 5.81137 3.90062 5.66489C3.60247 5.43674 3.22654 5.40304 2.9621 5.40433C2.8208 5.40433 2.46821 5.42118 2.24784 5.5547C2.05988 5.66878 1.95099 5.86452 1.83821 6.16007C1.7734 6.33118 1.69951 6.55415 1.6308 6.78618C1.34432 7.75841 1.39488 7.98396 1.4221 8.09804C1.47784 8.33137 1.58673 8.55044 2.09099 8.58026C2.10006 8.58026 2.10914 8.58026 2.11821 8.58026C2.42932 8.58026 2.85192 8.46618 3.20451 8.26526C3.72692 7.96841 4.09636 7.49785 4.24803 6.97804C4.3258 6.71359 4.33617 6.46729 4.28173 6.24692ZM3.2071 6.95341C3.16562 7.06878 3.07488 7.16989 2.94914 7.22952C2.86488 7.2697 2.76506 7.29044 2.69377 7.28655C2.69117 7.28655 2.68988 7.28655 2.68729 7.28655C2.57062 7.27359 2.54729 7.22304 2.53821 7.16989C2.53303 7.14396 2.5421 7.11285 2.62117 6.89896C2.63932 6.84711 2.64192 6.77711 2.65877 6.73952C2.68858 6.6747 2.7158 6.63192 2.76117 6.60859C2.81432 6.58137 2.89599 6.58137 2.9284 6.58396C2.98932 6.58655 3.07617 6.59952 3.14358 6.65396C3.18636 6.68896 3.21488 6.73563 3.22525 6.78878C3.23303 6.84063 3.22784 6.89507 3.2071 6.95341Z" fill="black"/>
</g>
<defs>
<clipPath id="clip0_11714_34892">
<rect width="14" height="14" rx="2" fill="white"/>
</clipPath>
</defs>
</svg>
