<svg width="12" height="13" viewBox="0 0 12 13" fill="none" xmlns="http://www.w3.org/2000/svg">
<path d="M9.5 4H9V3.5C9 3.10218 8.84196 2.72064 8.56066 2.43934C8.27936 2.15804 7.89782 2 7.5 2H2.5C2.10218 2 1.72064 2.15804 1.43934 2.43934C1.15804 2.72064 1 3.10218 1 3.5V9.5C1 9.89782 1.15804 10.2794 1.43934 10.5607C1.72064 10.842 2.10218 11 2.5 11H9.5C9.89782 11 10.2794 10.842 10.5607 10.5607C10.842 10.2794 11 9.89782 11 9.5V5.5C11 5.10218 10.842 4.72064 10.5607 4.43934C10.2794 4.15804 9.89782 4 9.5 4ZM2.5 3H7.5C7.63261 3 7.75979 3.05268 7.85355 3.14645C7.94732 3.24021 8 3.36739 8 3.5V4H2.5C2.36739 4 2.24021 3.94732 2.14645 3.85355C2.05268 3.75979 2 3.63261 2 3.5C2 3.36739 2.05268 3.24021 2.14645 3.14645C2.24021 3.05268 2.36739 3 2.5 3ZM10 8H9.5C9.36739 8 9.24021 7.94732 9.14645 7.85355C9.05268 7.75979 9 7.63261 9 7.5C9 7.36739 9.05268 7.24021 9.14645 7.14645C9.24021 7.05268 9.36739 7 9.5 7H10V8ZM10 6H9.5C9.10218 6 8.72064 6.15804 8.43934 6.43934C8.15804 6.72064 8 7.10218 8 7.5C8 7.89782 8.15804 8.27936 8.43934 8.56066C8.72064 8.84196 9.10218 9 9.5 9H10V9.5C10 9.63261 9.94732 9.75979 9.85355 9.85355C9.75979 9.94732 9.63261 10 9.5 10H2.5C2.36739 10 2.24021 9.94732 2.14645 9.85355C2.05268 9.75979 2 9.63261 2 9.5V4.915C2.16063 4.97151 2.32972 5.00025 2.5 5H9.5C9.63261 5 9.75979 5.05268 9.85355 5.14645C9.94732 5.24021 10 5.36739 10 5.5V6Z" fill="#C6C6C6"/>
</svg>
