<svg width="16" height="16" viewBox="0 0 16 16" fill="none" xmlns="http://www.w3.org/2000/svg">
<g clip-path="url(#clip0_11521_33765)">
<path d="M8 16C12.4334 16 16 12.4334 16 8C16 3.56664 12.4334 0 8 0C3.56664 0 0 3.56664 0 8C0 12.4334 3.56664 16 8 16Z" fill="#2775CA"/>
<path d="M10.2 9.26642C10.2 8.09978 9.5 7.69978 8.10002 7.53313C7.10003 7.39977 6.90003 7.13313 6.90003 6.66641C6.90003 6.19969 7.23338 5.89977 7.90002 5.89977C8.50001 5.89977 8.83337 6.09977 9.00001 6.59977C9.03337 6.69977 9.13337 6.76641 9.23337 6.76641H9.76664C9.9 6.76641 10 6.66641 10 6.53313V6.49977C9.86664 5.76641 9.26665 5.19977 8.50001 5.13313V4.33313C8.50001 4.19977 8.40001 4.09977 8.23338 4.06641H7.73338C7.60002 4.06641 7.50002 4.16641 7.46666 4.33313V5.09977C6.46667 5.23313 5.8334 5.89977 5.8334 6.73313C5.8334 7.83314 6.50003 8.26642 7.90002 8.43314C8.83337 8.59978 9.13337 8.79978 9.13337 9.33314C9.13337 9.8665 8.66665 10.2331 8.03338 10.2331C7.16667 10.2331 6.86667 9.86642 6.76667 9.36642C6.73339 9.23314 6.63339 9.16642 6.53339 9.16642H5.96668C5.8334 9.16642 5.7334 9.26642 5.7334 9.39978V9.43314C5.86668 10.2664 6.40003 10.8664 7.50002 11.0331V11.8331C7.50002 11.9664 7.60002 12.0664 7.76666 12.0998H8.26665C8.40001 12.0998 8.50001 11.9998 8.53337 11.8331V11.0331C9.53336 10.8664 10.2 10.1664 10.2 9.26642Z" fill="white"/>
<path d="M6.29967 12.7653C3.69967 11.832 2.36631 8.93203 3.33303 6.36531C3.83303 4.96531 4.93303 3.89867 6.29967 3.39867C6.43303 3.33203 6.49967 3.23203 6.49967 3.06531V2.59867C6.49967 2.46531 6.43303 2.36531 6.29967 2.33203C6.26631 2.33203 6.19967 2.33203 6.16631 2.36531C2.99967 3.36531 1.26631 6.73203 2.26631 9.89867C2.86631 11.7653 4.29967 13.1987 6.16631 13.7987C6.29967 13.8653 6.43303 13.7987 6.46631 13.6653C6.49967 13.632 6.49967 13.5987 6.49967 13.532V13.0653C6.49967 12.9653 6.39967 12.832 6.29967 12.7653ZM9.83303 2.36531C9.69967 2.29867 9.56631 2.36531 9.53303 2.49867C9.49967 2.53203 9.49967 2.56531 9.49967 2.63203V3.09867C9.49967 3.23203 9.59967 3.36531 9.69967 3.43203C12.2997 4.36531 13.633 7.26531 12.6663 9.83203C12.1663 11.232 11.0663 12.2987 9.69967 12.7987C9.56631 12.8653 9.49967 12.9653 9.49967 13.132V13.5987C9.49967 13.732 9.56631 13.832 9.69967 13.8653C9.73303 13.8653 9.79967 13.8653 9.83303 13.832C12.9997 12.832 14.733 9.46531 13.733 6.29867C13.133 4.39867 11.6663 2.96531 9.83303 2.36531Z" fill="white"/>
</g>
<defs>
<clipPath id="clip0_11521_33765">
<rect width="16" height="16" fill="white"/>
</clipPath>
</defs>
</svg>
