<svg width="20" height="20" viewBox="0 0 20 20" fill="none" xmlns="http://www.w3.org/2000/svg">
<path d="M14.2933 3.34961H16.5834L11.5803 9.06771L17.4657 16.8485H12.8574L9.24799 12.1295L5.11783 16.8485H2.82642L8.17744 10.7323L2.53174 3.34961H7.25722L10.52 7.66288L14.2933 3.34961ZM13.4893 15.4778H14.7583L6.56737 4.64798H5.20555L13.4889 15.4778H13.4893Z" fill="white"/>
<path d="M11.6035 9.06869L16.6207 3.33441H14.2871L10.5214 7.63831L7.27147 3.34037L7.26636 3.33398H2.5L8.15848 10.7316L2.7917 16.8657H5.12654L9.24819 12.1564L12.8456 16.8597L12.8507 16.8661H17.5L11.6035 9.06912V9.06869ZM6.56118 4.66557L14.7274 15.4626H13.4993L5.24067 4.66557H6.56118Z" fill="white"/>
</svg>
